<svg width="14" height="29" viewBox="0 0 14 29" fill="none" xmlns="http://www.w3.org/2000/svg">
<path opacity="0.75" d="M13.1116 8.31696L3.60268 17.8259C3.52232 17.9062 3.46875 17.9866 3.42857 18.0804V9C3.42857 8.53125 3.04018 8.14286 2.57143 8.14286H0.857143C0.388393 8.14286 0 8.53125 0 9V27.8571C0 28.3259 0.388393 28.7143 0.857143 28.7143H2.57143C3.04018 28.7143 3.42857 28.3259 3.42857 27.8571V18.7768C3.46875 18.8705 3.52232 18.9509 3.60268 19.0312L13.1116 28.5402C13.4464 28.875 13.7143 28.7545 13.7143 28.2857V8.57143C13.7143 8.10268 13.4464 7.98214 13.1116 8.31696Z" fill="white"/>
</svg>
