<svg width="14" height="28" viewBox="0 0 14 28" fill="none" xmlns="http://www.w3.org/2000/svg">
<path opacity="0.75" d="M0.602679 24.5402L10.1116 15.0312C10.192 14.9509 10.2455 14.8705 10.2857 14.7768V23.8571C10.2857 24.3259 10.6741 24.7143 11.1429 24.7143H12.8571C13.3259 24.7143 13.7143 24.3259 13.7143 23.8571V5C13.7143 4.53125 13.3259 4.14286 12.8571 4.14286H11.1429C10.6741 4.14286 10.2857 4.53125 10.2857 5V14.0804C10.2455 13.9866 10.192 13.9062 10.1116 13.8259L0.602679 4.31696C0.267857 3.98214 0 4.10268 0 4.57143V24.2857C0 24.7545 0.267857 24.875 0.602679 24.5402Z" fill="white"/>
</svg>
